<?xml version="1.0" encoding="utf-8" ?>
<svg xmlns="http://www.w3.org/2000/svg" xmlns:xlink="http://www.w3.org/1999/xlink" width="107" height="107">
	<path fill="white" transform="scale(0.104421 0.104421)" d="M247.815 410.365C262.585 390.228 278.53 370.772 293.788 350.987C334.338 350.488 374.96 350.92 415.519 350.834C415.784 397.825 415.786 444.817 415.525 491.808L415.389 545.009C415.285 557.854 415.375 570.788 413.991 583.575C412.7 595.504 410.096 606.883 405.222 617.883C395.56 639.789 377.458 656.863 355.024 665.228C324.148 676.83 277.865 675.861 247.825 662.207C225.045 651.853 209.625 633.258 200.976 610.088C192.605 585.711 192.944 560.924 193.167 535.527L256.406 535.512L255.969 550.955C255.582 568.843 257.315 588.154 270.471 601.69C279.111 610.58 292.278 613.47 304.252 613.65C316.001 613.828 327.572 611.814 336.237 603.26C342.137 597.437 344.95 590.534 346.502 582.509C350.041 564.198 348.497 537.454 348.508 518.265L348.736 410.466C315.118 409.969 281.442 410.499 247.815 410.365Z"/>
	<path fill="white" transform="scale(0.104421 0.104421)" d="M443.968 410.392L444.086 351.006L579.789 350.916C580.237 370.713 579.895 390.629 579.601 410.431L443.968 410.392Z"/>
	<path fill="white" transform="scale(0.104421 0.104421)" d="M607.182 518.953L608.537 351.012L801.432 351.012L801.475 412.627L671.548 412.555C670.375 420.692 669.964 429.073 669.2 437.264C668.163 448.399 666.87 459.567 666.317 470.738C673.65 466.49 680.86 462.788 689.017 460.34C717.077 451.92 757.073 455.363 782.558 469.368C805.157 481.787 821.181 501.627 828.234 526.468C836.451 555.407 833.726 591.727 818.93 618.024C803.695 645.101 779.507 660.566 750.094 668.743C736.993 671.877 723.564 673.437 710.093 673.389C679.27 673.554 647.172 666.918 624.644 644.463C601.045 620.939 597.713 591.233 597.684 559.648L662.202 559.947C662.986 574.941 665.622 591.716 676.688 602.843C686.231 612.44 699.692 615.598 712.849 615.628C727.557 615.662 741.252 611.228 751.768 600.618C761.273 591.027 765.172 577.228 765.109 563.983C765.053 551.92 760.914 540.096 752.22 531.552C745.896 525.338 738.158 521.485 729.58 519.45C710.053 514.819 687.928 516.96 667.931 517.503C647.684 518.108 627.434 518.591 607.182 518.953Z"/>
	<path fill="white" transform="scale(0.104421 0.104421)" d="M443.874 534.142C443.822 515.849 443.463 497.525 443.636 479.235C443.652 477.547 443.334 475.445 444.558 474.247C489.181 473.528 533.936 474.227 578.569 474.326L578.685 514.329C578.704 520.912 579.322 528.054 578.451 534.547L443.874 534.142Z"/>
	<path fill="white" transform="scale(0.104421 0.104421)" d="M393.388 674.301C416.072 656.132 432.804 634.291 438.818 605.217C439.677 605.529 440.46 605.922 441.271 606.339C441.942 608.197 441.322 609.837 440.966 611.746L529.145 611.56C544.634 611.58 560.234 611.251 575.708 611.877C581.943 635.802 596.764 659.307 616.635 674.21L573.125 674.219L393.388 674.301Z"/>
</svg>
